<svg width="71" height="71" viewBox="0 0 71 71" fill="none" xmlns="http://www.w3.org/2000/svg">
<path d="M31.0842 10.2259C32.7557 6.35515 38.2443 6.35515 39.9158 10.2259C41.0649 12.8871 44.2894 13.9348 46.7833 12.4573C50.4107 10.3082 54.8511 13.5344 53.9282 17.6484C53.2937 20.4767 55.2865 23.2196 58.1725 23.4902C62.3703 23.8837 64.0664 29.1037 60.9016 31.8895C58.7258 33.8048 58.7258 37.1952 60.9016 39.1104C64.0664 41.8962 62.3703 47.1162 58.1725 47.5098C55.2865 47.7803 53.2937 50.5232 53.9282 53.3516C54.8511 57.4656 50.4107 60.6917 46.7833 58.5426C44.2894 57.0652 41.0649 58.1129 39.9158 60.774C38.2443 64.6448 32.7557 64.6448 31.0842 60.774C29.9351 58.1129 26.7106 57.0652 24.2167 58.5426C20.5893 60.6917 16.1489 57.4656 17.0718 53.3516C17.7063 50.5232 15.7135 47.7803 12.8275 47.5098C8.62967 47.1162 6.93359 41.8962 10.0984 39.1104C12.2742 37.1952 12.2742 33.8048 10.0984 31.8895C6.93359 29.1037 8.62967 23.8837 12.8275 23.4902C15.7135 23.2196 17.7063 20.4767 17.0718 17.6484C16.1489 13.5344 20.5893 10.3082 24.2167 12.4573C26.7106 13.9348 29.9351 12.8871 31.0842 10.2259Z" fill="#CDF854"/>
<path d="M30.38 50.0557C25.9728 50.0557 22.4 46.483 22.4 42.0757L22.4 40.8157L38.36 40.8157L38.36 42.0757C38.36 46.483 34.7873 50.0557 30.38 50.0557Z" fill="#FF914D"/>
<path d="M49 34.5737L35.7622 47.8115C34.1405 49.4332 31.941 50.3443 29.6475 50.3443C27.3541 50.3443 25.1545 49.4332 23.5328 47.8115C21.9111 46.1897 21 43.9902 21 41.6967C21 39.4033 21.9111 37.2037 23.5328 35.582L36.7706 22.3443C37.8517 21.2631 39.3181 20.6557 40.847 20.6557C42.376 20.6557 43.8424 21.2631 44.9235 22.3443C46.0047 23.4254 46.6121 24.8918 46.6121 26.4207C46.6121 27.9497 46.0047 29.4161 44.9235 30.4972L31.6714 43.735C31.1308 44.2756 30.3976 44.5793 29.6331 44.5793C28.8686 44.5793 28.1355 44.2756 27.5949 43.735C27.0543 43.1944 26.7506 42.4612 26.7506 41.6967C26.7506 40.9323 27.0543 40.1991 27.5949 39.6585L39.8243 27.4435" stroke="#55474A" stroke-width="3" stroke-linecap="round" stroke-linejoin="round"/>
</svg>
