<svg width="71" height="71" viewBox="0 0 71 71" fill="none" xmlns="http://www.w3.org/2000/svg">
<path d="M31.0842 10.226C32.7557 6.35518 38.2443 6.35518 39.9158 10.226C41.0649 12.8871 44.2894 13.9348 46.7833 12.4573C50.4107 10.3083 54.8511 13.5344 53.9282 17.6484C53.2937 20.4768 55.2865 23.2197 58.1725 23.4902C62.3703 23.8838 64.0664 29.1038 60.9016 31.8896C58.7258 33.8048 58.7258 37.1952 60.9016 39.1104C64.0664 41.8962 62.3703 47.1162 58.1725 47.5098C55.2865 47.7803 53.2937 50.5232 53.9282 53.3516C54.8511 57.4656 50.4107 60.6917 46.7833 58.5427C44.2894 57.0652 41.0649 58.1129 39.9158 60.774C38.2443 64.6448 32.7557 64.6448 31.0842 60.774C29.9351 58.1129 26.7106 57.0652 24.2167 58.5427C20.5893 60.6917 16.1489 57.4656 17.0718 53.3516C17.7063 50.5232 15.7135 47.7803 12.8275 47.5098C8.62967 47.1162 6.93359 41.8962 10.0984 39.1104C12.2742 37.1952 12.2742 33.8048 10.0984 31.8896C6.93359 29.1038 8.62967 23.8838 12.8275 23.4902C15.7135 23.2197 17.7063 20.4768 17.0718 17.6484C16.1489 13.5344 20.5893 10.3083 24.2167 12.4573C26.7106 13.9348 29.9351 12.8871 31.0842 10.226Z" fill="#59AFFF"/>
<path d="M46.1192 25.2912L25.2911 46.1192" stroke="#55474A" stroke-width="3" stroke-linecap="round" stroke-linejoin="round"/>
<path d="M27.5228 31.2421C29.5769 31.2421 31.2421 29.5769 31.2421 27.5228C31.2421 25.4687 29.5769 23.8035 27.5228 23.8035C25.4687 23.8035 23.8035 25.4687 23.8035 27.5228C23.8035 29.5769 25.4687 31.2421 27.5228 31.2421Z" fill="#FF914D" stroke="#55474A" stroke-width="3" stroke-linecap="round" stroke-linejoin="round"/>
<path d="M43.8876 47.6069C45.9417 47.6069 47.6069 45.9417 47.6069 43.8876C47.6069 41.8335 45.9417 40.1683 43.8876 40.1683C41.8335 40.1683 40.1683 41.8335 40.1683 43.8876C40.1683 45.9417 41.8335 47.6069 43.8876 47.6069Z" stroke="#55474A" stroke-width="3" stroke-linecap="round" stroke-linejoin="round"/>
</svg>
