<svg width="71" height="71" viewBox="0 0 71 71" fill="none" xmlns="http://www.w3.org/2000/svg">
<path d="M31.0842 10.2259C32.7557 6.35515 38.2443 6.35515 39.9158 10.2259C41.0649 12.8871 44.2894 13.9348 46.7833 12.4573C50.4107 10.3082 54.8511 13.5344 53.9282 17.6484C53.2937 20.4767 55.2865 23.2196 58.1725 23.4902C62.3703 23.8837 64.0664 29.1037 60.9016 31.8895C58.7258 33.8048 58.7258 37.1952 60.9016 39.1104C64.0664 41.8962 62.3703 47.1162 58.1725 47.5098C55.2865 47.7803 53.2937 50.5232 53.9282 53.3516C54.8511 57.4656 50.4107 60.6917 46.7833 58.5426C44.2894 57.0652 41.0649 58.1129 39.9158 60.774C38.2443 64.6448 32.7557 64.6448 31.0842 60.774C29.9351 58.1129 26.7106 57.0652 24.2167 58.5426C20.5893 60.6917 16.1489 57.4656 17.0718 53.3516C17.7063 50.5232 15.7135 47.7803 12.8275 47.5098C8.62967 47.1162 6.93359 41.8962 10.0984 39.1104C12.2742 37.1952 12.2742 33.8048 10.0984 31.8895C6.93359 29.1037 8.62967 23.8837 12.8275 23.4902C15.7135 23.2196 17.7063 20.4767 17.0718 17.6484C16.1489 13.5344 20.5893 10.3082 24.2167 12.4573C26.7106 13.9348 29.9351 12.8871 31.0842 10.2259Z" fill="#BDCEDD"/>
<path d="M23 40.7831C23 36.7644 26.2578 33.5065 30.2766 33.5065V49.4588C26.2578 49.4588 23 46.2009 23 42.1822V40.7831Z" fill="#FF914D"/>
<path d="M30.1318 33.9578L35.0611 22C36.0416 22 36.9819 22.4199 37.6752 23.1674C38.3686 23.9149 38.7581 24.9288 38.7581 25.9859V31.3005H45.733C46.0902 31.2961 46.4441 31.3756 46.7701 31.5333C47.096 31.691 47.3863 31.9233 47.6207 32.214C47.8552 32.5046 48.0282 32.8468 48.1278 33.2167C48.2274 33.5867 48.2512 33.9755 48.1976 34.3564L46.497 46.3142C46.4079 46.9478 46.1094 47.5254 45.6565 47.9405C45.2036 48.3555 44.6268 48.5801 44.0324 48.5729H30.1318M30.1318 33.9578V48.5729M30.1318 33.9578H26.4349C25.7812 33.9578 25.1543 34.2378 24.6921 34.7361C24.2299 35.2344 23.9702 35.9103 23.9702 36.6151V45.9156C23.9702 46.6204 24.2299 47.2963 24.6921 47.7946C25.1543 48.2929 25.7812 48.5729 26.4349 48.5729H30.1318" stroke="#55474A" stroke-width="3" stroke-linecap="round" stroke-linejoin="round"/>
</svg>
