<svg width="40" height="40" viewBox="0 0 40 40" fill="none" xmlns="http://www.w3.org/2000/svg">
<circle cx="20" cy="20" r="20" fill="#E1701A"/>
<path d="M16.2592 27V25.5682L20.6889 20.9787C21.1619 20.4801 21.5518 20.0433 21.8587 19.6683C22.1697 19.2891 22.402 18.929 22.5554 18.5881C22.7088 18.2472 22.7855 17.8849 22.7855 17.5014C22.7855 17.0668 22.6832 16.6918 22.4787 16.3764C22.2741 16.0568 21.995 15.8118 21.6413 15.6413C21.2876 15.4666 20.8892 15.3793 20.446 15.3793C19.9773 15.3793 19.5682 15.4751 19.2188 15.6669C18.8693 15.8587 18.6009 16.1293 18.4134 16.4787C18.2259 16.8281 18.1321 17.2372 18.1321 17.706H16.2464C16.2464 16.9091 16.4297 16.2124 16.7962 15.6158C17.1626 15.0192 17.6655 14.5568 18.3047 14.2287C18.9439 13.8963 19.6705 13.7301 20.4844 13.7301C21.3068 13.7301 22.0313 13.8942 22.6577 14.2223C23.2884 14.5462 23.7805 14.9893 24.1342 15.5518C24.4879 16.1101 24.6648 16.7408 24.6648 17.4439C24.6648 17.9297 24.5732 18.4048 24.3899 18.8693C24.2109 19.3338 23.8977 19.8516 23.4503 20.4226C23.0028 20.9893 22.3807 21.6776 21.5838 22.4872L18.9822 25.2102V25.3061H24.8757V27H16.2592Z" fill="white"/>
</svg>
